<?xml version="1.0" encoding="UTF-8" standalone="no"?>
<!-- Generator: Adobe Illustrator 15.0.0, SVG Export Plug-In . SVG Version: 6.00 Build 0)  -->

<svg
   xmlns:dc="http://purl.org/dc/elements/1.1/"
   xmlns:cc="http://creativecommons.org/ns#"
   xmlns:rdf="http://www.w3.org/1999/02/22-rdf-syntax-ns#"
   xmlns:svg="http://www.w3.org/2000/svg"
   xmlns="http://www.w3.org/2000/svg"
   xmlns:sodipodi="http://sodipodi.sourceforge.net/DTD/sodipodi-0.dtd"
   xmlns:inkscape="http://www.inkscape.org/namespaces/inkscape"
   version="1.1"
   x="0px"
   y="0px"
   width="130"
   height="123.80952"
   viewBox="0 0 130 123.80952"
   enable-background="new 0 0 48 48"
   xml:space="preserve"
   id="svg28"
   sodipodi:docname="Mail-Azul.svg"
   inkscape:version="0.92.1 r15371"><metadata
     id="metadata34"><rdf:RDF><cc:Work
         rdf:about=""><dc:format>image/svg+xml</dc:format><dc:type
           rdf:resource="http://purl.org/dc/dcmitype/StillImage" /></cc:Work></rdf:RDF></metadata><defs
     id="defs32" /><sodipodi:namedview
     pagecolor="#ffffff"
     bordercolor="#666666"
     borderopacity="1"
     objecttolerance="10"
     gridtolerance="10"
     guidetolerance="10"
     inkscape:pageopacity="0"
     inkscape:pageshadow="2"
     inkscape:window-width="1920"
     inkscape:window-height="1017"
     id="namedview30"
     showgrid="false"
     inkscape:snap-page="false"
     inkscape:zoom="1.2291667"
     inkscape:cx="-86.048774"
     inkscape:cy="240.79113"
     inkscape:window-x="-8"
     inkscape:window-y="-8"
     inkscape:window-maximized="1"
     inkscape:current-layer="svg28" /><g
     id="g6"
     transform="matrix(3.0952381,0,0,3.0952381,-9.2857143,-12.380952)"><path
       d="M 45,34 V 18 c 0,-4.418 -3.582,-8 -8,-8 H 16 c -4.418,0 -8,3.582 -8,8 v 16 z"
       id="path2"
       inkscape:connector-curvature="0"
       style="fill:#2196f3" /><path
       d="m 11,33 c 0,0.552 -0.448,1 -1,1 H 4 C 3.448,34 3,33.552 3,33 v 0 c 0,-0.552 0.448,-1 1,-1 h 6 c 0.552,0 1,0.448 1,1 z"
       id="path4"
       inkscape:connector-curvature="0"
       style="fill:#2196f3" /></g><path
     d="m 40.238094,24.761908 c -10.242142,0 -18.571427,8.32929 -18.571427,18.57143 v 43.33333 h 37.142856 v -43.33333 c 0,-10.24214 -8.329285,-18.57143 -18.571429,-18.57143 z"
     id="path8"
     inkscape:connector-curvature="0"
     style="fill:#0d47a1;stroke-width:3.09523797" /><g
     id="g16"
     transform="matrix(3.0952381,0,0,3.0952381,-9.2857143,-12.380952)"><rect
       x="28"
       y="4"
       width="6"
       height="4"
       id="rect10"
       style="fill:#ff3d00" /><rect
       x="28"
       y="6"
       width="2"
       height="11"
       id="rect12"
       style="fill:#ff3d00" /><circle
       cx="29"
       cy="18"
       r="2"
       id="circle14"
       style="fill:#ff3d00" /></g><circle
     cx="80.476189"
     cy="43.333332"
     r="3.095238"
     id="circle18"
     style="fill:#dd2c00;stroke-width:3.09523797" /><rect
     x="68.095238"
     y="92.85714"
     width="15.476191"
     height="30.952381"
     id="rect20"
     style="fill:#ffcc80;stroke-width:3.09523797" /><rect
     x="68.095238"
     y="92.85714"
     width="15.476191"
     height="6.1904759"
     id="rect22"
     style="fill:#ffa726;stroke-width:3.09523797" /><path
     d="m 30.952381,52.619048 v 27.85715 c 0,3.17261 3.017857,6.19047 6.190475,6.19047 H 58.809523 V 46.428578 H 37.142856 c -3.172618,0 -6.190474,3.01785 -6.190475,6.19047 z"
     id="path24"
     inkscape:connector-curvature="0"
     style="fill:#cfd8dc;stroke-width:3.09523797" /><path
     d="m 30.952381,52.619048 v 3.09524 l 27.857142,21.66667 v -6.19048 l -27.18238,-21.14357 c -0.417858,0.80786 -0.674762,1.67762 -0.674762,2.57214 z"
     id="path26"
     inkscape:connector-curvature="0"
     style="fill:#78909c;stroke-width:3.09523797" /></svg>