<?xml version="1.0" encoding="iso-8859-1"?>
<!-- Generator: Adobe Illustrator 19.0.0, SVG Export Plug-In . SVG Version: 6.00 Build 0)  -->
<svg version="1.1" id="Capa_1" xmlns="http://www.w3.org/2000/svg" xmlns:xlink="http://www.w3.org/1999/xlink" x="0px" y="0px"
	 viewBox="0 0 494.031 494.031" style="enable-background:new 0 0 494.031 494.031;" xml:space="preserve">
<g transform="matrix(1.25 0 0 -1.25 0 45)">
	<g>
		<g>
			<g>
				<path style="fill:#FFAC33;" d="M395.225-224.062c0.034-6.292-5.04-11.401-11.355-11.412l-56.889-0.148
					c-6.281-0.023-11.366,5.086-11.378,11.344c-0.034,6.315,5.052,11.401,11.321,11.423l56.889,0.148
					C390.105-212.707,395.214-217.77,395.225-224.062"/>
				<path style="fill:#FFAC33;" d="M377.157-161.609c2.708-5.678,0.284-12.459-5.404-15.167l-51.382-24.405
					c-5.666-2.685-12.447-0.262-15.132,5.416c-2.731,5.666-0.296,12.447,5.382,15.167l51.382,24.394
					C367.691-153.52,374.46-155.932,377.157-161.609"/>
				<path style="fill:#FFAC33;" d="M377.498-286.617c2.662,5.7,0.228,12.47-5.461,15.132l-51.519,24.144
					c-5.7,2.685-12.459,0.239-15.132-5.45c-2.662-5.7-0.216-12.47,5.484-15.132l51.496-24.155
					C368.055-294.752,374.847-292.306,377.498-286.617"/>
			</g>
			<path style="fill:#292F33;" d="M305.818-129.865c-16.156,4.767-30.64,17.601-35.681,25.6
				c-8.647,13.744,1.775,17.306-1.752,55.626c-3.231,35.078-51.53,72.806-110.251,76.641c-26.681,1.741-54.443-3.709-82.887-19.263
				C2.202-31.208-26.754-115.643,29.668-197.187c50.859-73.5,3.14-106.712,3.14-106.712s1.889-15.474,33.155-36.272
				c31.278-20.799,69.643-6.69,69.643-6.69s12.652,44.988,54.022,40.846c29.662-4.369,71.293,1.456,81.818,11.651
				c9.853,9.523-1.718,21.458,6.133,48.06c-26.908,2.628-41.688,15.462-43.11,33.542c29.867-2.901,42.177,6.576,50.711,17.01
				c-0.228,6.144-0.853,19.183-1.434,27.921C310.153-160.187,320.268-134.132,305.818-129.865"/>
		</g>
	</g>
</g>
<g>
</g>
<g>
</g>
<g>
</g>
<g>
</g>
<g>
</g>
<g>
</g>
<g>
</g>
<g>
</g>
<g>
</g>
<g>
</g>
<g>
</g>
<g>
</g>
<g>
</g>
<g>
</g>
<g>
</g>
</svg>
