<?xml version="1.0" encoding="UTF-8" standalone="no"?>
<svg
   xmlns:dc="http://purl.org/dc/elements/1.1/"
   xmlns:cc="http://creativecommons.org/ns#"
   xmlns:rdf="http://www.w3.org/1999/02/22-rdf-syntax-ns#"
   xmlns:svg="http://www.w3.org/2000/svg"
   xmlns="http://www.w3.org/2000/svg"
   xmlns:sodipodi="http://sodipodi.sourceforge.net/DTD/sodipodi-0.dtd"
   xmlns:inkscape="http://www.inkscape.org/namespaces/inkscape"
   id="svg4"
   version="1.1"
   viewBox="0 0 448 512"
   sodipodi:docname="square.double.svg"
   inkscape:version="0.92.4 (5da689c313, 2019-01-14)">
  <sodipodi:namedview
     pagecolor="#ffffff"
     bordercolor="#666666"
     borderopacity="1"
     objecttolerance="10"
     gridtolerance="10"
     guidetolerance="10"
     inkscape:pageopacity="0"
     inkscape:pageshadow="2"
     inkscape:window-width="1920"
     inkscape:window-height="1017"
     id="namedview6"
     showgrid="false"
     inkscape:zoom="0.921875"
     inkscape:cx="-92.57812"
     inkscape:cy="321.20605"
     inkscape:window-x="-8"
     inkscape:window-y="-8"
     inkscape:window-maximized="1"
     inkscape:current-layer="svg4" />
  <metadata
     id="metadata10">
    <rdf:RDF>
      <cc:Work
         rdf:about="">
        <dc:format>image/svg+xml</dc:format>
        <dc:type
           rdf:resource="http://purl.org/dc/dcmitype/StillImage" />
        <dc:title />
      </cc:Work>
    </rdf:RDF>
  </metadata>
  <defs
     id="defs8" />
  <path
     d="m 123.68641,45.016221 c -21.08079,0 -38.184066,17.103282 -38.184066,38.184063 V 110.59846 H 51.201011 c -21.080784,0 -38.184062,17.10329 -38.184062,38.18407 v 280.01646 c 0,21.08078 17.103278,38.18406 38.184062,38.18406 H 331.21747 c 21.08079,0 38.18407,-17.10328 38.18407,-38.18406 V 401.4008 h 34.30133 c 21.08078,0 38.18406,-17.10328 38.18406,-38.18406 V 83.200284 c 0,-21.080781 -17.10328,-38.184063 -38.18406,-38.184063 z m 4.773,38.184063 h 270.47045 c 2.62515,0 4.77301,2.147853 4.77301,4.773007 V 358.44373 c 0,2.62515 -2.14786,4.77301 -4.77301,4.77301 H 369.40154 V 148.78253 c 0,-21.08078 -17.10328,-38.18407 -38.18407,-38.18407 H 123.68641 V 87.973291 c 0,-2.625154 2.14785,-4.773007 4.773,-4.773007 z M 55.974019,148.78253 h 67.712391 v 0.21596 l 2.20316,-0.21596 h 200.5549 c 2.62515,0 4.773,2.14785 4.773,4.773 v 270.47045 c 0,2.62515 -2.14785,4.77301 -4.773,4.77301 H 55.974019 c -2.625154,0 -4.773008,-2.14786 -4.773008,-4.77301 V 153.55553 c 0,-2.62515 2.147854,-4.773 4.773008,-4.773 z"
     id="path817"
     inkscape:connector-curvature="0"
     style="stroke-width:0.79550135" />
</svg>
