<?xml version="1.0" encoding="UTF-8" standalone="no"?>
<!-- Generator: Adobe Illustrator 19.1.0, SVG Export Plug-In . SVG Version: 6.00 Build 0)  -->

<svg
   xmlns:dc="http://purl.org/dc/elements/1.1/"
   xmlns:cc="http://creativecommons.org/ns#"
   xmlns:rdf="http://www.w3.org/1999/02/22-rdf-syntax-ns#"
   xmlns:svg="http://www.w3.org/2000/svg"
   xmlns="http://www.w3.org/2000/svg"
   xmlns:sodipodi="http://sodipodi.sourceforge.net/DTD/sodipodi-0.dtd"
   xmlns:inkscape="http://www.inkscape.org/namespaces/inkscape"
   version="1.1"
   x="0px"
   y="0px"
   viewBox="0 0 130 130.55257"
   xml:space="preserve"
   id="svg14"
   sodipodi:docname="WhatsappTelefone.svg"
   width="130"
   height="130.55257"
   inkscape:version="0.92.4 (5da689c313, 2019-01-14)"><metadata
     id="metadata20"><rdf:RDF><cc:Work
         rdf:about=""><dc:format>image/svg+xml</dc:format><dc:type
           rdf:resource="http://purl.org/dc/dcmitype/StillImage" /><dc:title></dc:title></cc:Work></rdf:RDF></metadata><defs
     id="defs18" /><sodipodi:namedview
     pagecolor="#ffffff"
     bordercolor="#666666"
     borderopacity="1"
     objecttolerance="10"
     gridtolerance="10"
     guidetolerance="10"
     inkscape:pageopacity="0"
     inkscape:pageshadow="2"
     inkscape:window-width="1920"
     inkscape:window-height="1017"
     id="namedview16"
     showgrid="false"
     inkscape:zoom="3.4766084"
     inkscape:cx="35.493182"
     inkscape:cy="39.629492"
     inkscape:window-x="-8"
     inkscape:window-y="-8"
     inkscape:window-maximized="1"
     inkscape:current-layer="svg14"
     inkscape:object-paths="true"
     inkscape:snap-nodes="false" /><path
     style="fill:#ffffff;stroke-width:3.2391963"
     d="M 3.2405293,127.31014 11.966924,95.452635 C 6.5833799,86.130225 3.7523225,75.551015 3.7555617,64.715905 3.7717565,30.817715 31.356752,3.2391952 65.25818,3.2391952 c 16.451878,0.006 31.889888,6.41037 43.5024,18.0293698 11.60928,11.62223 18.00346,27.06672 17.99698,43.49592 -0.013,33.89819 -27.604431,61.479955 -61.49938,61.479955 -0.0032,0 0,0 0,0 h -0.0259 c -10.290927,-0.003 -20.406939,-2.58488 -29.38923,-7.48578 z"
     id="path2"
     inkscape:connector-curvature="0" /><g
     id="g8"
     transform="matrix(3.2391962,0,0,3.2391962,-12.527878,-12.956785)"><path
       style="fill:#ffffff"
       d="m 4.868,43.803 c -0.132,0 -0.26,-0.052 -0.355,-0.148 C 4.388,43.528 4.339,43.343 4.386,43.172 L 7.025,33.536 C 5.389,30.63 4.526,27.33 4.528,23.98 4.532,13.238 13.273,4.5 24.014,4.5 c 5.21,0.002 10.105,2.031 13.784,5.713 3.679,3.683 5.704,8.577 5.702,13.781 -0.004,10.741 -8.746,19.48 -19.486,19.48 -3.189,-10e-4 -6.344,-0.788 -9.144,-2.277 l -9.875,2.589 c -0.042,0.012 -0.084,0.017 -0.127,0.017 z"
       id="path4"
       inkscape:connector-curvature="0" /><path
       style="fill:#cfd8dc"
       d="m 24.014,5 c 5.079,0.002 9.845,1.979 13.43,5.566 3.584,3.588 5.558,8.356 5.556,13.428 -0.004,10.465 -8.522,18.98 -18.986,18.98 h -0.008 c -3.177,-10e-4 -6.3,-0.798 -9.073,-2.311 L 4.868,43.303 7.562,33.468 C 5.9,30.59 5.026,27.324 5.027,23.979 5.032,13.514 13.548,5 24.014,5 m 0,37.974 c 0,0 0,0 0,0 0,0 0,0 0,0 m 0,0 c 0,0 0,0 0,0 0,0 0,0 0,0 M 24.014,4 c 0,0 0,0 0,0 C 12.998,4 4.032,12.962 4.027,23.979 4.026,27.346 4.876,30.664 6.488,33.601 L 3.903,43.04 c -0.094,0.345 0.002,0.713 0.254,0.967 0.19,0.192 0.447,0.297 0.711,0.297 0.085,0 0.17,-0.011 0.254,-0.033 l 9.687,-2.54 c 2.828,1.468 5.998,2.243 9.197,2.244 11.024,0 19.99,-8.963 19.995,-19.98 C 44.003,18.656 41.926,13.636 38.153,9.86 34.378,6.083 29.357,4.002 24.014,4 Z"
       id="path6"
       inkscape:connector-curvature="0" /></g><path
     style="fill:#40c351;stroke-width:3.2391963"
     d="m 101.41409,28.608575 c -9.652806,-9.65928 -22.483263,-14.98128 -36.139715,-14.98452 -28.193964,0 -51.124233,22.92056 -51.137189,51.09509 -0.0032,9.65604 2.69825,19.05619 7.81618,27.19628 l 1.217938,1.93381 -5.166518,18.855365 19.347718,-5.07258 1.869016,1.1078 c 7.845335,4.65797 16.843821,7.11976 26.017225,7.12299 h 0.01944 c 28.17453,0 51.104795,-22.923795 51.114515,-51.101555 0.003,-13.65322 -5.3058,-26.49339 -14.9586,-36.15268 z"
     id="path10"
     inkscape:connector-curvature="0" /><path
     style="clip-rule:evenodd;fill:#ffffff;fill-rule:evenodd;stroke-width:3.2391963"
     d="m 47.871499,41.604845 c -1.149915,-2.55896 -2.361376,-2.61079 -3.459463,-2.65614 -0.897257,-0.0389 -1.920844,-0.0356 -2.944428,-0.0356 -1.023588,0 -2.688534,0.38546 -4.097584,1.92408 -1.409051,1.53862 -5.380307,5.25398 -5.380307,12.81426 0,7.56029 5.506634,14.86792 6.274323,15.8915 0.767693,1.02359 10.631043,17.03493 26.250449,23.19588 12.97946,5.11793 15.622643,4.10083 18.440744,3.84493 2.818101,-0.2559 9.092424,-3.71536 10.371907,-7.30439 1.279482,-3.58903 1.279482,-6.66303 0.897256,-7.30438 -0.385463,-0.64137 -1.40905,-1.02359 -2.944428,-1.79452 -1.535381,-0.77093 -9.092424,-4.48629 -10.501475,-4.99808 -1.40905,-0.51179 -2.432638,-0.76769 -3.459462,0.77093 -1.023585,1.53538 -3.968016,4.99808 -4.865273,6.02167 -0.897257,1.02682 -1.794514,1.15639 -3.329895,0.38546 -1.535378,-0.77093 -6.484868,-2.39053 -12.357534,-7.62507 -4.567264,-4.07167 -7.650981,-9.10214 -8.548237,-10.64076 -0.897257,-1.53538 -0.09718,-2.36785 0.673754,-3.13554 0.689949,-0.68995 1.535378,-1.79451 2.306307,-2.69177 0.767689,-0.89726 1.023584,-1.53862 1.535378,-2.56221 0.511794,-1.02682 0.255895,-1.92408 -0.129568,-2.69177 -0.378985,-0.77093 -3.365524,-8.37008 -4.732464,-11.40845 z"
     id="path12"
     inkscape:connector-curvature="0" /><path
     d="m 75.070879,63.937391 4.015959,-0.68565 C 78.4556,59.562284 76.714263,56.221091 74.06961,53.565554 71.272586,50.76853 67.7355,49.005425 63.839254,48.461256 l -0.56593,4.037727 c 3.014691,0.424449 5.75729,1.784872 7.923083,3.950658 2.046066,2.046072 3.384721,4.636314 3.874472,7.48775 z"
     id="path4-2"
     inkscape:connector-curvature="0"
     style="fill:#ffffff;stroke-width:0.10883355" /><path
     d="M 81.350577,46.480486 C 76.714263,41.844178 70.848137,38.916557 64.372539,38.01324 l -0.56593,4.037721 c 5.594042,0.783602 10.665689,3.319426 14.670758,7.313618 3.798294,3.798287 6.290583,8.597849 7.193897,13.876278 l 4.01596,-0.685649 C 88.631534,56.438757 85.747454,50.88825 81.350577,46.480486 Z"
     id="path6-8"
     inkscape:connector-curvature="0"
     style="fill:#ffffff;stroke-width:0.10883355" /></svg>