<?xml version="1.0" encoding="UTF-8" standalone="no"?>
<!-- Generator: Adobe Illustrator 19.1.0, SVG Export Plug-In . SVG Version: 6.00 Build 0)  -->

<svg
   xmlns:dc="http://purl.org/dc/elements/1.1/"
   xmlns:cc="http://creativecommons.org/ns#"
   xmlns:rdf="http://www.w3.org/1999/02/22-rdf-syntax-ns#"
   xmlns:svg="http://www.w3.org/2000/svg"
   xmlns="http://www.w3.org/2000/svg"
   xmlns:sodipodi="http://sodipodi.sourceforge.net/DTD/sodipodi-0.dtd"
   xmlns:inkscape="http://www.inkscape.org/namespaces/inkscape"
   version="1.1"
   x="0px"
   y="0px"
   viewBox="0 0 130 130.55257"
   xml:space="preserve"
   id="svg14"
   sodipodi:docname="Whatsapp-Site.svg"
   width="130"
   height="130.55257"
   inkscape:version="0.92.4 (5da689c313, 2019-01-14)"><metadata
     id="metadata20"><rdf:RDF><cc:Work
         rdf:about=""><dc:format>image/svg+xml</dc:format><dc:type
           rdf:resource="http://purl.org/dc/dcmitype/StillImage" /><dc:title></dc:title></cc:Work></rdf:RDF></metadata><defs
     id="defs18" /><sodipodi:namedview
     pagecolor="#ffffff"
     bordercolor="#666666"
     borderopacity="1"
     objecttolerance="10"
     gridtolerance="10"
     guidetolerance="10"
     inkscape:pageopacity="0"
     inkscape:pageshadow="2"
     inkscape:window-width="1920"
     inkscape:window-height="1017"
     id="namedview16"
     showgrid="false"
     inkscape:zoom="3.4766084"
     inkscape:cx="35.493182"
     inkscape:cy="39.629492"
     inkscape:window-x="-8"
     inkscape:window-y="-8"
     inkscape:window-maximized="1"
     inkscape:current-layer="svg14"
     inkscape:object-paths="true"
     inkscape:snap-nodes="false" /><path
     style="fill:#ffffff;stroke-width:3.2391963"
     d="M 3.2405293,127.31014 11.966924,95.452635 C 6.5833799,86.130225 3.7523225,75.551015 3.7555617,64.715905 3.7717565,30.817715 31.356752,3.2391952 65.25818,3.2391952 c 16.451878,0.006 31.889888,6.41037 43.5024,18.0293698 11.60928,11.62223 18.00346,27.06672 17.99698,43.49592 -0.013,33.89819 -27.604431,61.479955 -61.49938,61.479955 -0.0032,0 0,0 0,0 h -0.0259 c -10.290927,-0.003 -20.406939,-2.58488 -29.38923,-7.48578 z"
     id="path2"
     inkscape:connector-curvature="0" /><g
     id="g8"
     transform="matrix(3.2391962,0,0,3.2391962,-12.527878,-12.956785)"><path
       style="fill:#ffffff"
       d="m 4.868,43.803 c -0.132,0 -0.26,-0.052 -0.355,-0.148 C 4.388,43.528 4.339,43.343 4.386,43.172 L 7.025,33.536 C 5.389,30.63 4.526,27.33 4.528,23.98 4.532,13.238 13.273,4.5 24.014,4.5 c 5.21,0.002 10.105,2.031 13.784,5.713 3.679,3.683 5.704,8.577 5.702,13.781 -0.004,10.741 -8.746,19.48 -19.486,19.48 -3.189,-10e-4 -6.344,-0.788 -9.144,-2.277 l -9.875,2.589 c -0.042,0.012 -0.084,0.017 -0.127,0.017 z"
       id="path4"
       inkscape:connector-curvature="0" /><path
       style="fill:#cfd8dc"
       d="m 24.014,5 c 5.079,0.002 9.845,1.979 13.43,5.566 3.584,3.588 5.558,8.356 5.556,13.428 -0.004,10.465 -8.522,18.98 -18.986,18.98 h -0.008 c -3.177,-10e-4 -6.3,-0.798 -9.073,-2.311 L 4.868,43.303 7.562,33.468 C 5.9,30.59 5.026,27.324 5.027,23.979 5.032,13.514 13.548,5 24.014,5 m 0,37.974 c 0,0 0,0 0,0 0,0 0,0 0,0 m 0,0 c 0,0 0,0 0,0 0,0 0,0 0,0 M 24.014,4 c 0,0 0,0 0,0 C 12.998,4 4.032,12.962 4.027,23.979 4.026,27.346 4.876,30.664 6.488,33.601 L 3.903,43.04 c -0.094,0.345 0.002,0.713 0.254,0.967 0.19,0.192 0.447,0.297 0.711,0.297 0.085,0 0.17,-0.011 0.254,-0.033 l 9.687,-2.54 c 2.828,1.468 5.998,2.243 9.197,2.244 11.024,0 19.99,-8.963 19.995,-19.98 C 44.003,18.656 41.926,13.636 38.153,9.86 34.378,6.083 29.357,4.002 24.014,4 Z"
       id="path6"
       inkscape:connector-curvature="0" /></g><path
     style="fill:#40c351;stroke-width:3.2391963"
     d="m 101.41409,28.608575 c -9.652806,-9.65928 -22.483263,-14.98128 -36.139715,-14.98452 -28.193964,0 -51.124233,22.92056 -51.137189,51.09509 -0.0032,9.65604 2.69825,19.05619 7.81618,27.19628 l 1.217938,1.93381 -5.166518,18.855365 19.347718,-5.07258 1.869016,1.1078 c 7.845335,4.65797 16.843821,7.11976 26.017225,7.12299 h 0.01944 c 28.17453,0 51.104795,-22.923795 51.114515,-51.101555 0.003,-13.65322 -5.3058,-26.49339 -14.9586,-36.15268 z"
     id="path10"
     inkscape:connector-curvature="0" /><g
     id="g4"
     transform="matrix(5.3529014,0,0,5.3529014,24.715306,24.68083)"
     style="fill:#ffffff"><path
       style="fill:#ffffff"
       d="M 14.982,7 C 14.736,3.256 11.744,0.263 8,0.017 V 0 H 7.5 7 V 0.017 C 3.256,0.263 0.263,3.256 0.017,7 H 0 V 7.5 8 H 0.017 C 0.263,11.744 3.256,14.736 7,14.982 V 15 H 7.5 8 V 14.982 C 11.744,14.736 14.736,11.744 14.982,8 H 15 V 7.5 7 Z M 4.695,1.635 C 4.212,2.277 3.811,3.082 3.519,4 H 2.021 C 2.673,2.983 3.599,2.16 4.695,1.635 Z M 1.498,5 H 3.256 C 3.122,5.632 3.037,6.303 3.01,7 H 1.019 C 1.072,6.296 1.238,5.623 1.498,5 Z M 1.019,8 H 3.01 c 0.027,0.697 0.112,1.368 0.246,2 H 1.498 C 1.238,9.377 1.072,8.704 1.019,8 Z m 1.002,3 H 3.518 C 3.81,11.918 4.211,12.723 4.695,13.365 3.599,12.84 2.673,12.018 2.021,11 Z M 7,13.936 C 5.972,13.661 5.087,12.557 4.55,11 H 7 Z M 7,10 H 4.269 C 4.128,9.377 4.039,8.704 4.01,8 H 7 Z M 7,7 H 4.01 C 4.039,6.296 4.128,5.623 4.269,5 H 7 Z M 7,4 H 4.55 C 5.087,2.443 5.972,1.339 7,1.065 Z m 5.979,0 H 11.483 C 11.19,3.082 10.79,2.277 10.305,1.635 11.4,2.16 12.327,2.983 12.979,4 Z M 8,1.065 C 9.027,1.339 9.913,2.443 10.45,4 H 8 Z M 8,5 h 2.73 c 0.142,0.623 0.229,1.296 0.26,2 H 8 Z m 0,3 h 2.99 c -0.029,0.704 -0.118,1.377 -0.26,2 H 8 Z m 0,5.936 V 11 h 2.45 C 9.913,12.557 9.027,13.661 8,13.936 Z m 2.305,-0.571 C 10.788,12.722 11.19,11.918 11.483,11 h 1.496 c -0.652,1.018 -1.579,1.84 -2.674,2.365 z M 13.502,10 H 11.744 C 11.878,9.368 11.963,8.697 11.99,8 h 1.99 c -0.052,0.704 -0.218,1.377 -0.478,2 z M 11.99,7 C 11.963,6.303 11.878,5.632 11.744,5 h 1.758 c 0.26,0.623 0.426,1.296 0.479,2 z"
       id="path2-0"
       inkscape:connector-curvature="0" /></g></svg>